# xmcd CD database file
#
# Track frame offsets:
#	150
#	16777
#	43380
#	60047
#	83132
#	98465
#	114184
#	133681
#	152040
#	167630
#	190509
#	211360
#	233281
#	256290
#	276952
#	288863
#
# Disc length: 4192 seconds
#
# Revision: 0
# Processed by: cddbd v1.5.1PL0 Copyright (c) Steve Scherf et al.
# Submitted via: CDex 1.51
#
DISCID=c0105e10
DTITLE=Laidback (Izutu Kanae) - LIttle Wing
DYEAR=2004
DGENRE=Jazz
TTITLE0=Little Wing
TTITLE1=One Day I'll Fly Away
TTITLE2=Songbird
TTITLE3=Honet For My Honey
TTITLE4=In My Life
TTITLE5=Ice Cream Man
TTITLE6=Crazy Love
TTITLE7=True Color
TTITLE8=Overjoyed
TTITLE9=I Can't Make You Love Me
TTITLE10=If We Fall In Love Tonight
TTITLE11=Ain't No Sunshine
TTITLE12=Way Over Yonger
TTITLE13=Move Over
TTITLE14=I'll Go Crazy
TTITLE15=Your Song
EXTD=YEAR: 2004
EXTT0=
EXTT1=
EXTT2=
EXTT3=
EXTT4=
EXTT5=
EXTT6=
EXTT7=
EXTT8=
EXTT9=
EXTT10=
EXTT11=
EXTT12=
EXTT13=
EXTT14=
EXTT15=
PLAYORDER=
